<svg width="171" height="52" viewBox="0 0 171 52" fill="none" xmlns="http://www.w3.org/2000/svg">
<path d="M8.38875 37.224C6.83142 37.224 5.42342 36.9573 4.16475 36.424C2.92742 35.8907 1.94608 35.1227 1.22075 34.12C0.495417 33.1173 0.122083 31.9333 0.10075 30.568H4.90075C4.96475 31.4853 5.28475 32.2107 5.86075 32.744C6.45808 33.2773 7.26875 33.544 8.29275 33.544C9.33808 33.544 10.1594 33.2987 10.7568 32.808C11.3541 32.296 11.6528 31.6347 11.6528 30.824C11.6528 30.1627 11.4501 29.6187 11.0448 29.192C10.6394 28.7653 10.1274 28.4347 9.50875 28.2C8.91142 27.944 8.07942 27.6667 7.01275 27.368C5.56208 26.9413 4.37808 26.5253 3.46075 26.12C2.56475 25.6933 1.78608 25.064 1.12475 24.232C0.48475 23.3787 0.16475 22.248 0.16475 20.84C0.16475 19.5173 0.495417 18.3653 1.15675 17.384C1.81808 16.4027 2.74608 15.656 3.94075 15.144C5.13542 14.6107 6.50075 14.344 8.03675 14.344C10.3408 14.344 12.2074 14.9093 13.6368 16.04C15.0874 17.1493 15.8874 18.7067 16.0368 20.712H11.1088C11.0661 19.944 10.7354 19.3147 10.1168 18.824C9.51942 18.312 8.71942 18.056 7.71675 18.056C6.84208 18.056 6.13808 18.28 5.60475 18.728C5.09275 19.176 4.83675 19.8267 4.83675 20.68C4.83675 21.2773 5.02875 21.7787 5.41275 22.184C5.81808 22.568 6.30875 22.888 6.88475 23.144C7.48208 23.3787 8.31408 23.656 9.38075 23.976C10.8314 24.4027 12.0154 24.8293 12.9328 25.256C13.8501 25.6827 14.6394 26.3227 15.3008 27.176C15.9621 28.0293 16.2928 29.1493 16.2928 30.536C16.2928 31.7307 15.9834 32.84 15.3647 33.864C14.7461 34.888 13.8394 35.7093 12.6448 36.328C11.4501 36.9253 10.0314 37.224 8.38875 37.224ZM36.6568 27.752C36.6568 28.392 36.6141 28.968 36.5288 29.48H23.5688C23.6754 30.76 24.1234 31.7627 24.9128 32.488C25.7021 33.2133 26.6728 33.576 27.8248 33.576C29.4888 33.576 30.6728 32.8613 31.3768 31.432H36.2088C35.6968 33.1387 34.7154 34.5467 33.2648 35.656C31.8141 36.744 30.0328 37.288 27.9208 37.288C26.2141 37.288 24.6781 36.9147 23.3128 36.168C21.9688 35.4 20.9128 34.3227 20.1448 32.936C19.3981 31.5493 19.0247 29.9493 19.0247 28.136C19.0247 26.3013 19.3981 24.6907 20.1448 23.304C20.8914 21.9173 21.9368 20.8507 23.2808 20.104C24.6248 19.3573 26.1714 18.984 27.9208 18.984C29.6061 18.984 31.1101 19.3467 32.4328 20.072C33.7768 20.7973 34.8114 21.832 35.5368 23.176C36.2834 24.4987 36.6568 26.024 36.6568 27.752ZM32.0168 26.472C31.9954 25.32 31.5794 24.4027 30.7688 23.72C29.9581 23.016 28.9661 22.664 27.7928 22.664C26.6834 22.664 25.7448 23.0053 24.9768 23.688C24.2301 24.3493 23.7714 25.2773 23.6008 26.472H32.0168ZM49.7508 19.016C51.8628 19.016 53.5694 19.688 54.8708 21.032C56.1721 22.3547 56.8228 24.2107 56.8228 26.6V37H52.3428V27.208C52.3428 25.8 51.9908 24.7227 51.2868 23.976C50.5828 23.208 49.6228 22.824 48.4068 22.824C47.1694 22.824 46.1881 23.208 45.4628 23.976C44.7588 24.7227 44.4068 25.8 44.4068 27.208V37H39.9268V19.272H44.4068V21.48C45.0041 20.712 45.7614 20.1147 46.6788 19.688C47.6174 19.24 48.6414 19.016 49.7508 19.016ZM59.931 28.072C59.931 26.28 60.283 24.6907 60.987 23.304C61.7123 21.9173 62.6937 20.8507 63.931 20.104C65.1683 19.3573 66.5443 18.984 68.059 18.984C69.211 18.984 70.3097 19.24 71.355 19.752C72.4003 20.2427 73.2323 20.904 73.851 21.736V13.32H78.395V37H73.851V34.376C73.2963 35.2507 72.5177 35.9547 71.515 36.488C70.5123 37.0213 69.3497 37.288 68.027 37.288C66.5337 37.288 65.1683 36.904 63.931 36.136C62.6937 35.368 61.7123 34.2907 60.987 32.904C60.283 31.496 59.931 29.8853 59.931 28.072ZM73.883 28.136C73.883 27.048 73.6697 26.12 73.243 25.352C72.8163 24.5627 72.2403 23.9653 71.515 23.56C70.7897 23.1333 70.011 22.92 69.179 22.92C68.347 22.92 67.579 23.1227 66.875 23.528C66.171 23.9333 65.595 24.5307 65.147 25.32C64.7203 26.088 64.507 27.0053 64.507 28.072C64.507 29.1387 64.7203 30.0773 65.147 30.888C65.595 31.6773 66.171 32.2853 66.875 32.712C67.6003 33.1387 68.3683 33.352 69.179 33.352C70.011 33.352 70.7897 33.1493 71.515 32.744C72.2403 32.3173 72.8163 31.72 73.243 30.952C73.6697 30.1627 73.883 29.224 73.883 28.136Z" fill="white"/>
<path d="M81.6825 25.8C81.6825 23.6027 82.1732 21.64 83.1545 19.912C84.1572 18.1627 85.5118 16.808 87.2185 15.848C88.9465 14.8667 90.8772 14.376 93.0105 14.376C95.5065 14.376 97.6932 15.016 99.5705 16.296C101.448 17.576 102.76 19.3467 103.507 21.608H98.3545C97.8425 20.5413 97.1172 19.7413 96.1785 19.208C95.2612 18.6747 94.1945 18.408 92.9785 18.408C91.6772 18.408 90.5145 18.7173 89.4905 19.336C88.4878 19.9333 87.6985 20.7867 87.1225 21.896C86.5678 23.0053 86.2905 24.3067 86.2905 25.8C86.2905 27.272 86.5678 28.5733 87.1225 29.704C87.6985 30.8133 88.4878 31.6773 89.4905 32.296C90.5145 32.8933 91.6772 33.192 92.9785 33.192C94.1945 33.192 95.2612 32.9253 96.1785 32.392C97.1172 31.8373 97.8425 31.0267 98.3545 29.96H103.507C102.76 32.2427 101.448 34.024 99.5705 35.304C97.7145 36.5627 95.5278 37.192 93.0105 37.192C90.8772 37.192 88.9465 36.712 87.2185 35.752C85.5118 34.7707 84.1572 33.416 83.1545 31.688C82.1732 29.96 81.6825 27.9973 81.6825 25.8ZM111.813 22.024C112.389 21.0853 113.136 20.3493 114.053 19.816C114.992 19.2827 116.058 19.016 117.253 19.016V23.72H116.069C114.661 23.72 113.594 24.0507 112.869 24.712C112.165 25.3733 111.813 26.5253 111.813 28.168V37H107.333V19.272H111.813V22.024ZM137.231 19.272L126.255 45.384H121.487L125.327 36.552L118.223 19.272H123.247L127.823 31.656L132.463 19.272H137.231ZM144.126 21.832C144.702 21.0213 145.491 20.3493 146.494 19.816C147.518 19.2613 148.68 18.984 149.982 18.984C151.496 18.984 152.862 19.3573 154.078 20.104C155.315 20.8507 156.286 21.9173 156.99 23.304C157.715 24.6693 158.078 26.2587 158.078 28.072C158.078 29.8853 157.715 31.496 156.99 32.904C156.286 34.2907 155.315 35.368 154.078 36.136C152.862 36.904 151.496 37.288 149.982 37.288C148.68 37.288 147.528 37.0213 146.526 36.488C145.544 35.9547 144.744 35.2827 144.126 34.472V45.448H139.646V19.272H144.126V21.832ZM153.502 28.072C153.502 27.0053 153.278 26.088 152.83 25.32C152.403 24.5307 151.827 23.9333 151.102 23.528C150.398 23.1227 149.63 22.92 148.798 22.92C147.987 22.92 147.219 23.1333 146.494 23.56C145.79 23.9653 145.214 24.5627 144.766 25.352C144.339 26.1413 144.126 27.0693 144.126 28.136C144.126 29.2027 144.339 30.1307 144.766 30.92C145.214 31.7093 145.79 32.3173 146.494 32.744C147.219 33.1493 147.987 33.352 148.798 33.352C149.63 33.352 150.398 33.1387 151.102 32.712C151.827 32.2853 152.403 31.6773 152.83 30.888C153.278 30.0987 153.502 29.16 153.502 28.072ZM166.549 22.952V31.528C166.549 32.1253 166.688 32.5627 166.965 32.84C167.264 33.096 167.754 33.224 168.437 33.224H170.517V37H167.701C163.925 37 162.037 35.1653 162.037 31.496V22.952H159.925V19.272H162.037V14.888H166.549V19.272H170.517V22.952H166.549Z" fill="#F5C249"/>
</svg>
