<svg width="72" height="72" viewBox="0 0 72 72" fill="none" xmlns="http://www.w3.org/2000/svg">
<path fill-rule="evenodd" clip-rule="evenodd" d="M24 20.561C20.1864 20.561 16.996 23.2295 16.1942 26.8011H55.8058C55.004 23.2295 51.8136 20.561 48 20.561H24ZM12 28.561V28.8011V43.461C12 50.0885 17.3726 55.461 24 55.461H48C54.6274 55.461 60 50.0885 60 43.461V28.8011V28.561C60 21.9336 54.6274 16.561 48 16.561H24C17.3726 16.561 12 21.9336 12 28.561ZM56 43.461V30.8011H16V43.461C16 47.8793 19.5817 51.461 24 51.461H48C52.4183 51.461 56 47.8793 56 43.461ZM40.46 41.5011C39.3554 41.5011 38.46 42.3966 38.46 43.5011C38.46 44.6057 39.3554 45.5011 40.46 45.5011H48.04C49.1445 45.5011 50.04 44.6057 50.04 43.5011C50.04 42.3966 49.1445 41.5011 48.04 41.5011H40.46Z" fill="#F5C249"/>
</svg>
