<svg width="40" height="40" viewBox="0 0 40 40" fill="none" xmlns="http://www.w3.org/2000/svg">
<path d="M30 5H10C7.23875 5 5 7.23875 5 10V30C5 32.7612 7.23875 35 10 35H30C32.7612 35 35 32.7612 35 30V10C35 7.23875 32.7612 5 30 5ZM28.6406 16.3912C28.6481 16.5606 28.6519 16.7306 28.6519 16.9012C28.6519 22.1138 24.655 28.125 17.3431 28.125C15.0981 28.125 13.0094 27.4719 11.25 26.3531C11.5613 26.39 11.8781 26.4088 12.1987 26.4088C14.0619 26.4088 15.7756 25.7781 17.1356 24.72C15.3962 24.6881 13.9281 23.5469 13.4225 21.98C13.6644 22.025 13.9144 22.05 14.17 22.05C14.5331 22.05 14.8844 22.0019 15.2175 21.9119C13.3987 21.55 12.0288 19.9556 12.0288 18.0444C12.0288 18.0275 12.0288 18.0119 12.0288 17.995C12.5644 18.29 13.1781 18.4675 13.8287 18.4881C12.7625 17.7812 12.0613 16.5738 12.0613 15.2056C12.0613 14.4819 12.2575 13.8044 12.5988 13.2212C14.56 15.6081 17.4887 17.1794 20.7919 17.3431C20.725 17.0556 20.6888 16.7538 20.6888 16.4444C20.6888 14.2663 22.4681 12.5 24.6638 12.5C25.8069 12.5 26.8394 12.9794 27.5644 13.7463C28.4706 13.5687 29.3212 13.2406 30.0887 12.7887C29.7925 13.71 29.1625 14.4831 28.3413 14.9713C29.145 14.8756 29.9113 14.6644 30.6244 14.35C30.0925 15.14 29.4181 15.8344 28.6406 16.3912Z" fill="#787A8D"/>
</svg>
